<?xml version="1.0" encoding="UTF-8" standalone="no"?>
<svg
   xmlns:dc="http://purl.org/dc/elements/1.1/"
   xmlns:cc="http://creativecommons.org/ns#"
   xmlns:rdf="http://www.w3.org/1999/02/22-rdf-syntax-ns#"
   xmlns:svg="http://www.w3.org/2000/svg"
   xmlns="http://www.w3.org/2000/svg"
   viewBox="0 0 245.66667 274.77332"
   height="274.77332"
   width="245.66667"
   xml:space="preserve"
   id="svg2"
   version="1.1"><metadata
     id="metadata8"><rdf:RDF><cc:Work
         rdf:about=""><dc:format>image/svg+xml</dc:format><dc:type
           rdf:resource="http://purl.org/dc/dcmitype/StillImage" /></cc:Work></rdf:RDF></metadata><defs
     id="defs6" /><g
     transform="matrix(1.3333333,0,0,-1.3333333,0,274.77333)"
     id="g10"><g
       transform="scale(0.1)"
       id="g12"><path
         id="path14"
         style="fill:#000000;fill-opacity:1;fill-rule:evenodd;stroke:none"
         d="M 1842.52,2060.79 H 0 V 0 h 1842.52 v 2060.79" /><path
         id="path16"
         style="fill:#9d86d7;fill-opacity:1;fill-rule:nonzero;stroke:none"
         d="M 857.859,1028.47 C 802.852,962.051 726.82,875.828 662.02,840.691 c -65.418,-35.48 -132.5,-53.222 -201.239,-53.222 -44.91,0 -80.109,8.66 -105.609,25.98 -25.5,17.332 -38.25,41.242 -38.25,71.731 0,17.461 4.918,31.73 14.758,42.82 9.84,11.09 22.242,16.629 37.211,16.629 11.089,0 20.097,-3.391 27.031,-10.18 6.93,-6.789 10.387,-15.59 10.387,-26.41 0,-10.25 -3.258,-18.359 -9.77,-24.32 -6.508,-5.957 -15.449,-8.938 -26.82,-8.938 -1.938,0 -5.258,0.489 -9.981,1.457 -4.707,0.973 -8.168,1.453 -10.386,1.453 -1.661,0 -2.774,-0.621 -3.332,-1.871 -0.551,-1.25 -0.829,-3.531 -0.829,-6.859 0,-17.191 10.457,-31.25 31.387,-42.199 20.934,-10.953 48.442,-16.434 82.543,-16.434 55.707,0 109.5,18.563 164.02,51.352 96.539,58.07 329.621,347.85 355.847,377.24 38.072,42.66 133.052,123.03 177.402,143.54 -44.63,-3.05 -87.73,-13.79 -129.31,-32.23 -41.58,-18.43 -83.021,-45.11 -124.318,-80.03 -39.91,-34.1 -71.172,-67.29 -93.762,-99.59 -16.949,-24.22 -24.852,-44.88 -30.141,-58.83 -2.32,-6.1 -1.629,-24.87 -1.629,-24.87 -6.589,4.03 -27.89,22.25 -27.89,24.87 0,30.49 9.84,62.02 29.519,94.59 19.68,32.57 46.012,60.64 79,84.2 46.563,33.54 95.7,59.11 147.391,76.71 51.7,17.6 106.37,27.51 164.03,29.73 16.63,6.93 28.97,11.78 37.01,14.55 8.03,2.77 13.86,4.16 17.46,4.16 4.71,0 8.31,-0.97 10.81,-2.91 2.49,-1.94 3.74,-4.71 3.74,-8.32 0,-5.82 -7.62,-10.46 -22.87,-13.92 -15.24,-3.47 -29.28,-6.92 -39.08,-14.77 -171.1,-136.88 -318.491,-347.33 -318.491,-347.33" /><path
         id="path18"
         style="fill:#9d86d7;fill-opacity:1;fill-rule:nonzero;stroke:none"
         d="M 973.441,862.82 C 910.77,797.609 842.41,710.18 777.609,675.031 c -65.418,-35.48 -132.5,-53.222 -201.238,-53.222 -44.91,0 -78.293,11.711 -105.609,25.992 -87.91,45.929 -98.903,125.508 -71.242,182.34 4.621,9.48 53.281,77.859 142.832,91.109 66.789,9.891 289.578,-12.699 382.238,-12.699 93.14,0 392.25,43.148 397.28,64.609 -1.03,-9.43 -4.77,-18.621 -16.99,-27.039 1.81,-7.223 -180.53,-46.801 -380.29,-62.191 -106.52,-8.2 -245.86,13.64 -348.219,5.761 C 500.672,883.859 461.5,845.93 447.27,816.84 c -17.711,-36.199 -20.34,-55.09 -16.879,-87.379 3.589,-33.43 40.847,-57.41 61.781,-68.352 20.93,-10.949 48.437,-16.429 82.539,-16.429 55.711,0 109.5,18.558 164.019,51.351 96.54,58.059 329.62,347.839 355.85,377.229 38.07,42.66 169.38,124.99 177.4,143.54 8.02,18.55 -87.73,-13.79 -129.31,-32.22 -41.58,-18.43 -83.02,-45.11 -124.32,-80.04 -39.92,-34.1 -71.17,-67.29 -93.76,-99.58 -16.949,-24.23 -24.852,-44.882 -30.141,-58.839 -2.32,-6.09 3.289,-24.871 -1.629,-24.871 -4.922,0 -27.898,22.25 -27.898,24.871 0,30.5 9.84,62.029 29.527,94.599 19.68,32.57 46.012,60.63 78.992,84.19 46.569,33.54 95.709,59.11 147.399,76.72 51.7,17.6 130.52,22.34 164.03,29.72 12.94,2.86 28.97,11.79 37,14.56 8.04,2.77 13.86,4.15 17.47,4.15 4.71,0 8.31,-0.97 10.81,-2.91 2.49,-1.94 3.74,-4.71 3.74,-8.31 0,-5.82 -7.62,-10.47 -22.87,-13.93 -15.24,-3.47 -29.28,-6.92 -39.08,-14.76 C 1120.84,1073.26 1059.17,952 973.441,862.82" /><path
         id="path20"
         style="fill:#ffffff;fill-opacity:1;fill-rule:nonzero;stroke:none"
         d="m 935.84,624.84 v 69.832 h 14.64 l 17.391,-49.442 c 1.609,-4.609 2.777,-8.05 3.508,-10.339 0.84,2.539 2.141,6.269 3.91,11.187 l 17.602,48.594 h 13.089 V 624.84 h -9.378 v 58.449 L 975.238,624.84 h -8.769 l -21.258,59.449 V 624.84 h -9.371" /><path
         id="path22"
         style="fill:#ffffff;fill-opacity:1;fill-rule:nonzero;stroke:none"
         d="m 1024.56,624.84 28.23,69.832 h 10.47 l 30.09,-69.832 h -11.08 l -8.58,21.148 h -30.73 l -8.07,-21.148 z m 21.21,28.672 h 24.92 l -7.68,19.34 c -2.34,5.878 -4.07,10.707 -5.21,14.476 -0.94,-4.469 -2.26,-8.918 -3.96,-13.328 l -8.07,-20.488" /><path
         id="path24"
         style="fill:#ffffff;fill-opacity:1;fill-rule:nonzero;stroke:none"
         d="m 1108.77,647.281 9.17,0.758 c 0.44,-3.5 1.45,-6.359 3.04,-8.598 1.58,-2.242 4.05,-4.05 7.39,-5.429 3.34,-1.383 7.1,-2.071 11.28,-2.071 3.71,0 6.99,0.52 9.83,1.571 2.84,1.047 4.96,2.476 6.34,4.308 1.39,1.828 2.08,3.821 2.08,5.981 0,2.187 -0.67,4.097 -2,5.738 -1.34,1.633 -3.55,3.012 -6.62,4.121 -1.97,0.731 -6.34,1.86 -13.09,3.399 -6.75,1.543 -11.48,3 -14.19,4.363 -3.51,1.75 -6.12,3.918 -7.84,6.5 -1.72,2.59 -2.59,5.488 -2.59,8.699 0,3.52 1.06,6.82 3.16,9.879 2.11,3.059 5.18,5.391 9.23,6.98 4.04,1.59 8.54,2.379 13.49,2.379 5.44,0 10.25,-0.828 14.41,-2.5 4.16,-1.668 7.36,-4.121 9.6,-7.359 2.24,-3.238 3.45,-6.91 3.61,-11 l -9.32,-0.672 c -0.5,4.41 -2.2,7.75 -5.09,10 -2.89,2.262 -7.16,3.383 -12.81,3.383 -5.89,0 -10.17,-1.02 -12.86,-3.07 -2.69,-2.051 -4.04,-4.512 -4.04,-7.403 0,-2.508 0.95,-4.578 2.86,-6.199 1.87,-1.617 6.76,-3.277 14.66,-4.969 7.91,-1.699 13.33,-3.191 16.27,-4.461 4.28,-1.871 7.44,-4.238 9.48,-7.121 2.04,-2.867 3.06,-6.179 3.06,-9.929 0,-3.719 -1.12,-7.219 -3.36,-10.5 -2.24,-3.289 -5.46,-5.848 -9.65,-7.668 -4.2,-1.832 -8.92,-2.743 -14.17,-2.743 -6.65,0 -12.22,0.922 -16.72,2.762 -4.49,1.84 -8.02,4.61 -10.58,8.309 -2.55,3.703 -3.9,7.89 -4.03,12.562" /><path
         id="path26"
         style="fill:#ffffff;fill-opacity:1;fill-rule:nonzero;stroke:none"
         d="m 1183.45,624.84 28.23,69.832 h 10.48 l 30.08,-69.832 h -11.08 l -8.57,21.148 h -30.74 l -8.07,-21.148 z m 21.21,28.672 h 24.92 l -7.67,19.34 c -2.34,5.878 -4.08,10.707 -5.22,14.476 -0.93,-4.469 -2.25,-8.918 -3.96,-13.328 z m 6.07,45.449 6.66,13.328 h 11.84 l -11.03,-13.328 h -7.47" /><path
         id="path28"
         style="fill:#ffffff;fill-opacity:1;fill-rule:nonzero;stroke:none"
         d="m 1265.1,624.84 v 8.57 l 37.66,44.731 c 2.67,3.179 5.21,5.937 7.62,8.289 h -41.02 v 8.242 h 52.65 v -8.242 l -41.26,-48.442 -4.47,-4.91 h 46.93 v -8.238 z m 29.78,79.07 5.52,8.102 h 10.23 l -11.28,-13.34 h -9.63 l -10.83,13.34 h 10.33 l 5.66,-8.102" /><path
         id="path30"
         style="fill:#ffffff;fill-opacity:1;fill-rule:nonzero;stroke:none"
         d="m 1346.05,624.84 v 9.762 h 10.28 v -9.762 h -10.28" /><path
         id="path32"
         style="fill:none;stroke:#551b7a;stroke-width:12;stroke-linecap:round;stroke-linejoin:round;stroke-miterlimit:10;stroke-dasharray:none;stroke-opacity:1"
         d="m 1310.22,1692.01 c 2.36,-2.77 2.43,-6.58 0.34,-8.48 -3.32,-3.01 -13,-7.79 -20.25,-9.56 -7.66,-1.86 -18.43,-3.61 -25.68,-1.63 -8.57,2.35 -12.72,4.48 -19.09,6.73" /><path
         id="path34"
         style="fill:none;stroke:#551b7a;stroke-width:12;stroke-linecap:round;stroke-linejoin:round;stroke-miterlimit:10;stroke-dasharray:none;stroke-opacity:1"
         d="m 1016.91,1906.38 c 19.15,1.52 28.51,4.68 47.64,2.9 26.18,-2.45 84.53,-15.53 109.44,-17.57 14.2,-1.17 29.31,-4.51 40.72,-13.05 34.71,-25.94 143.43,-84.86 181.11,-105.84 14.33,-7.98 39.06,-11.42 44.93,-20.05 5.87,-8.63 -2.78,-24.86 -9.72,-31.76 -9.79,-9.71 -17.25,-10.87 -27.49,-13.61" /><path
         id="path36"
         style="fill:none;stroke:#551b7a;stroke-width:12;stroke-linecap:round;stroke-linejoin:round;stroke-miterlimit:10;stroke-dasharray:none;stroke-opacity:1"
         d="m 124.09,1600.7 c 42.73,20.68 115.512,83.93 205.219,123.72 68.992,30.6 157.05,57.18 193.66,65.66 49.59,11.48 131.883,42.71 178.32,63.56 51.551,23.14 130.18,63.22 166.191,80.44 16.7,7.99 87.622,-14.73 104.442,-19.11 40.288,-10.48 192.368,-36.85 228.688,-50.44 24.72,-9.25 147.99,-113.84 180.22,-142.37 7.11,-6.3 12.55,-19.78 10.16,-25.68 -3.18,-7.85 -31.02,-14.44 -45.88,-9.88 -44.35,13.63 -187.33,96.73 -185.43,97.6 0,0 -46.22,-0.63 -104.04,7.28 -12.23,1.68 -25.28,2.33 -37.01,-1.52 -21.669,-7.11 -76.63,-31.86 -93.028,-41.15 -4.524,-2.56 -7.524,-17.84 -6.43,-21.02 1.09,-3.17 9.969,-9.22 14.219,-9.34 16.058,-0.46 57.269,7.31 83.149,12.99 54.45,11.96 128.4,17.42 164.9,13.44 25.43,-2.77 50.26,-24.7 54.36,-35.37 3.95,-10.29 5.67,-25 -1.9,-33.02 -10.75,-11.39 -41.22,-28.65 -65.06,-30.98 -35.18,-3.45 -109.29,-13.34 -149.51,-21.06 -30.791,-5.92 -61.92,-18.6 -89.299,-29.6 -25.769,-10.36 -49.39,-25.57 -74.961,-36.42 -37.679,-16 -109.281,-30.93 -187.101,-31.25 -64.77,-0.27 -118.469,20.46 -163,31.33 -17.707,4.32 -141.168,-45.49 -161.688,-62.18 -32.972,-26.81 -131.429,-101.32 -181.441,-255.16" /><path
         id="path38"
         style="fill:none;stroke:#551b7a;stroke-width:12;stroke-linecap:round;stroke-linejoin:round;stroke-miterlimit:10;stroke-dasharray:none;stroke-opacity:1"
         d="m 1162.81,1746.62 c -46.08,23.25 -56.3,36.83 -56.3,36.83" /><path
         id="path40"
         style="fill:none;stroke:#551b7a;stroke-width:12;stroke-linecap:round;stroke-linejoin:round;stroke-miterlimit:10;stroke-dasharray:none;stroke-opacity:1"
         d="m 1042.58,1786.3 c 0,0 32.93,-31.36 58.17,-42.37" /><path
         id="path42"
         style="fill:none;stroke:#551b7a;stroke-width:12;stroke-linecap:round;stroke-linejoin:round;stroke-miterlimit:10;stroke-dasharray:none;stroke-opacity:1"
         d="m 1665.47,958.031 c -0.75,-74.75 -34.7,-197.031 -50.35,-235.711 -35.8,-88.461 -55.58,-113.191 -76.41,-145.351 -25.07,-38.719 -89.05,-141.098 -125.53,-136.059 -27.8,3.828 -50.12,23.27 -75.89,26.559 -58.91,7.511 -128.28,-18.578 -184.92,-39.321 -55.32,-20.25 -116.46,-66.847 -154.909,-85.097 -23.981,-11.379 -50.262,-17.18 -75.801,-24.391 -42.699,-12.039 -124.691,-3.941 -180.379,-47.871 -10.84,-8.551 -23.633,-26.809 -26.453,-41.699 -1.558,-8.219 0.344,-20.641 7.211,-23.942 34.102,-16.367 141.481,0.832 178.57,0.442 39.719,-0.41 85.871,25.601 115.681,28.609 21.23,2.153 42.11,-7.019 63.16,-10.539" /><path
         id="path44"
         style="fill:none;stroke:#551b7a;stroke-width:12;stroke-linecap:round;stroke-linejoin:round;stroke-miterlimit:10;stroke-dasharray:none;stroke-opacity:1"
         d="m 1718.42,400 c -139.77,-133.539 -294.26,-170.031 -340.6,-201.93 -66.21,-45.582 -315.74,-72.64 -388.429,-73.05 -33.922,-0.192 -66.782,4 -100.821,13.269 -36.492,9.93 -107.949,18.121 -157.14,24.063 -23.16,2.789 -67.102,17.519 -106.86,27.789 -62.308,16.097 -129.621,21.359 -148.179,39.187 -6.5,6.242 18.039,36.242 35.597,42.231 84.25,28.73 144.883,-2.18 220.043,-9.887" /><path
         id="path46"
         style="fill:none;stroke:#551b7a;stroke-width:12;stroke-linecap:round;stroke-linejoin:round;stroke-miterlimit:10;stroke-dasharray:none;stroke-opacity:1"
         d="m 698.301,271.051 c -48.59,39.801 -204.231,113.039 -229.84,115.34 0,0 8.437,38.48 34.219,46.007 19.73,5.762 57.789,-4.339 84.832,-13.789 31.328,-10.949 92.226,-46.531 144.289,-70.238 43.25,-19.691 68.648,-21.98 108.578,-38.359" /><path
         id="path48"
         style="fill:none;stroke:#551b7a;stroke-width:12;stroke-linecap:round;stroke-linejoin:round;stroke-miterlimit:10;stroke-dasharray:none;stroke-opacity:1"
         d="m 943.5,326.219 c -43.57,27.383 -103.941,53.07 -156.93,70.742 -28.699,9.57 -68.148,26.277 -107.832,48.527 -26.468,14.852 -50.379,29 -87.968,23.524 -17.141,-2.5 -34.559,-21.211 -39.84,-34.071" /><path
         id="path50"
         style="fill:none;stroke:#551b7a;stroke-width:12;stroke-linecap:round;stroke-linejoin:round;stroke-miterlimit:10;stroke-dasharray:none;stroke-opacity:1"
         d="m 1020.63,357.102 c -36.86,21.339 -72.091,25.058 -107.06,40.226 -39.379,17.094 -103.621,61.723 -132.25,72.102 -13.332,4.84 -23.121,3.761 -31.789,-0.59 -12.621,-6.328 -19.672,-23.481 -19.672,-23.481 22.711,-7.031 54.512,-34.918 84.461,-57.757" /><path
         id="path52"
         style="fill:none;stroke:#551b7a;stroke-width:12;stroke-linecap:round;stroke-linejoin:round;stroke-miterlimit:10;stroke-dasharray:none;stroke-opacity:1"
         d="m 1359.62,1617.82 c 186.48,-140.84 307.1,-364.38 307.1,-615.85 0,-21.65 -0.9,-43.099 -2.65,-64.298" /><path
         id="path54"
         style="fill:none;stroke:#551b7a;stroke-width:12;stroke-linecap:round;stroke-linejoin:round;stroke-miterlimit:10;stroke-dasharray:none;stroke-opacity:1"
         d="M 413.352,400 C 237.051,541.41 124.09,758.602 124.09,1001.97 c 0,84.8 13.719,166.43 39.051,242.78" /></g></g></svg>